<svg width="200" height="200" viewBox="0 0 200 200" fill="none" xmlns="http://www.w3.org/2000/svg">
<path d="M13 99.9999C13 148.121 52.0963 187.004 100 187.004C147.904 187.004 187 148.121 187 99.9999C187 51.8789 148.118 12.9954 100 12.9954C51.8815 12.9954 13 51.8789 13 99.9999Z" fill="#8EBEEC"/>
<path d="M29.1758 21.8422L110.044 17.6559L145.018 49.9539L151.26 170.538C151.474 174.669 148.298 178.192 144.166 178.406L37.5662 183.924C33.4348 184.138 29.9122 180.962 29.6983 176.831L22.0823 29.7102C21.8684 25.5787 25.0443 22.0561 29.1758 21.8422Z" fill="white"/>
<path fill-rule="evenodd" clip-rule="evenodd" d="M18.3362 29.9071C18.0154 23.7099 22.7792 18.426 28.9764 18.1052L109.845 13.9189C110.852 13.8667 111.838 14.2232 112.58 14.9077L147.553 47.2056C148.271 47.869 148.702 48.787 148.752 49.7635L154.994 170.348C155.315 176.545 150.552 181.829 144.354 182.15L37.7542 187.668C31.5569 187.989 26.273 183.225 25.9522 177.028L18.3362 29.9071ZM29.3637 25.5859C27.2979 25.6928 25.71 27.4541 25.817 29.5198L33.4329 176.64C33.5399 178.706 35.3012 180.294 37.3669 180.187L143.967 174.669C146.033 174.562 147.621 172.801 147.514 170.735L141.465 53.8911L111.993 55.4168C109.927 55.5237 108.166 53.9358 108.059 51.8701L106.492 21.5932L29.3637 25.5859ZM114.254 26.6507L135.939 46.6764L115.346 47.7425L114.254 26.6507ZM38.704 55.4604C38.597 53.3946 40.1849 51.6333 42.2507 51.5264L91.6351 48.9699C93.7008 48.863 95.4621 50.4509 95.569 52.5166C95.676 54.5824 94.0881 56.3437 92.0223 56.4506L42.6379 59.0071C40.5722 59.114 38.8109 57.5261 38.704 55.4604ZM39.7398 75.4705C39.6329 73.4047 41.2208 71.6434 43.2865 71.5365L126.86 67.2102C128.926 67.1032 130.687 68.6912 130.794 70.7569C130.901 72.8226 129.313 74.584 127.247 74.6909L43.6738 79.0172C41.6081 79.1242 39.8467 77.5362 39.7398 75.4705ZM40.7387 94.766C40.6317 92.7002 42.2197 90.9389 44.2854 90.832L127.859 86.5057C129.925 86.3987 131.686 87.9866 131.793 90.0524C131.9 92.1181 130.312 93.8794 128.246 93.9864L44.6727 98.3127C42.6069 98.4196 40.8456 96.8317 40.7387 94.766ZM41.7375 114.061C41.6306 111.996 43.2185 110.234 45.2843 110.127L128.858 105.801C130.924 105.694 132.685 107.282 132.792 109.348C132.899 111.414 131.311 113.175 129.245 113.282L45.6715 117.608C43.6058 117.715 41.8445 116.127 41.7375 114.061ZM42.7364 133.357C42.6295 131.291 44.2174 129.53 46.2831 129.423L129.857 125.097C131.922 124.99 133.684 126.578 133.791 128.643C133.898 130.709 132.31 132.47 130.244 132.577L46.6704 136.904C44.6046 137.011 42.8433 135.423 42.7364 133.357ZM43.7353 152.652C43.6283 150.587 45.2163 148.825 47.282 148.718L130.856 144.392C132.921 144.285 134.683 145.873 134.79 147.939C134.896 150.005 133.309 151.766 131.243 151.873L47.6693 156.199C45.6035 156.306 43.8422 154.718 43.7353 152.652Z" fill="#3295DB"/>
<path d="M172.093 176.459L161.036 166.79L118.724 129.79L111.211 104.721L136.333 109.785L178.758 148.957L188.622 158.065C193.88 162.919 193.932 171.209 188.736 176.129C184.104 180.515 176.896 180.658 172.093 176.459Z" fill="#A6D0E5"/>
<path d="M172.093 176.458L161.036 166.789L178.758 148.956L188.622 158.064C193.879 162.918 193.932 171.208 188.736 176.128C184.104 180.515 176.895 180.657 172.093 176.458Z" fill="white"/>
<path fill-rule="evenodd" clip-rule="evenodd" d="M108.438 102.198C109.325 101.225 110.656 100.79 111.946 101.05L137.068 106.113C137.741 106.249 138.364 106.567 138.868 107.033L191.158 155.313C198.007 161.637 198.075 172.438 191.306 178.848C185.271 184.563 175.879 184.749 169.623 179.278L116.253 132.609C115.722 132.145 115.333 131.54 115.131 130.865L107.618 105.796C107.24 104.536 107.552 103.17 108.438 102.198ZM116.586 109.626L121.996 127.68L160.851 161.657L173.357 149.073L134.558 113.249L116.586 109.626ZM178.864 154.157L166.501 166.598L174.554 173.639C177.901 176.567 182.926 176.467 186.155 173.409C189.777 169.979 189.741 164.2 186.076 160.816L178.864 154.157Z" fill="#3295DB"/>
</svg>