<svg width="289" height="284" viewBox="0 0 289 284" fill="none" xmlns="http://www.w3.org/2000/svg">
<path d="M130.146 263.054C81.7941 266.962 -6.37857 243.499 1.44415 114.797C9.26691 -13.905 99.9262 1.02724 99.9262 1.02724C155.033 12.7598 167.477 66.8004 167.477 66.8004C296.179 52.579 288.002 154.261 288.002 154.261C282.313 247.765 178.498 259.143 130.146 263.054Z" fill="#4AC6F3"/>
<path d="M206.679 276.541H153.574V187.822H206.679V276.541Z" fill="#E8E8E8"/>
<path d="M153.784 276.541H100.68L100.68 187.822H153.784V276.541Z" fill="#F8F8F8"/>
<path d="M149.013 103.927L142.617 134.552L162.594 137.124C162.594 137.124 164.325 105.299 162.594 105.128C160.862 104.973 149.013 103.927 149.013 103.927Z" fill="#F9A9A4"/>
<path d="M167.703 73.165C167.703 73.165 147.744 75.9772 144.16 106.345C144.16 106.345 150.522 113.187 158.632 111.077L167.703 73.165Z" fill="#FA930A"/>
<path d="M176.364 72.1194C176.364 72.1194 195.809 70.1989 202.65 83.8995C209.509 97.6001 189.516 111.867 196.374 143.263L153.266 140.982V113.29C153.266 113.29 145.413 101.835 156.541 89.5581C156.541 89.5581 157.21 70.902 176.364 72.1194Z" fill="#FA930A"/>
<path d="M112.232 147.704C112.232 147.704 98.257 142.526 94.5018 156.089C90.7466 169.635 75.1769 258.201 75.1769 258.201H87.6601L94.9991 222.997C94.9991 222.997 105.356 211.457 108.528 186.954L152.082 181.758L112.232 147.704Z" fill="#FDB5AF"/>
<path d="M140.801 180.112C140.801 180.112 133.393 179.906 120.241 175.722C107.089 171.521 97.7098 175.963 102.888 190.778C108.067 205.576 134.233 274.164 134.233 274.164L144.144 271.198L135.588 226.787C135.588 226.787 133.582 204.753 124.288 191.841C124.288 191.841 143.836 192.818 150.523 191.789C157.176 190.778 140.801 180.112 140.801 180.112Z" fill="#F9A9A4"/>
<path d="M196.374 143.263C196.374 143.263 212.184 163.137 193.168 182.65C193.168 182.65 183.377 194.053 140.217 192.27C140.217 192.27 128.9 154.066 104.825 143.795L154.655 137.125L196.374 143.263Z" fill="#0A2472"/>
<path d="M175.297 21.3808C175.297 21.3808 170.153 0.444109 187.968 0.324079C201.155 0.238343 205.081 15.9966 188.912 26.5421L175.297 21.3808Z" fill="black"/>
<path d="M189.511 30.3486C189.511 30.3486 192.734 22.118 183.543 17.9512C174.353 13.7845 171.42 23.644 171.42 23.644L189.511 30.3486Z" fill="#FD6C75"/>
<path d="M154.601 49.0734C154.601 49.0734 141.329 41.22 155.681 25.4446C164.649 15.5849 180.356 16.1336 189.101 25.9075C197.846 35.6814 189.598 52.9143 189.598 52.9143L183.648 43.0204L178.436 35.3385L170.977 32.3549L165.129 32.7664L160.174 33.4008L156.179 35.0813L154.601 49.0734Z" fill="black"/>
<path d="M165.443 55.4193L180.359 53.5034L183.378 77.0088L168.462 78.9247L165.443 55.4193Z" fill="#FDB5AF"/>
<path d="M181.918 60.4937C181.918 60.4937 180.306 69.0501 173.43 70.782C171.287 71.3135 168.955 70.6962 167.652 68.93C167.291 68.4499 167.034 67.9012 166.948 67.2839C166.623 64.8147 173.139 60.4937 173.139 60.4937H181.918Z" fill="#F9A9A4"/>
<path d="M171.404 66.5804L172.176 66.4775C180.732 65.3801 186.785 57.5438 185.688 48.9874L184.813 42.1971C183.716 33.6407 175.88 27.5877 167.323 28.6851L166.552 28.788C157.995 29.8854 151.942 37.7217 153.04 46.2782L153.914 53.0684C155.012 61.6249 162.848 67.6778 171.404 66.5804Z" fill="#FDB5AF"/>
<path d="M184.007 47.2902C184.007 47.2902 173.273 43.7922 173.547 31.7377C173.547 31.7377 172.861 22.7526 182.258 31.069C191.655 39.3854 184.007 47.2902 184.007 47.2902Z" fill="black"/>
<path d="M181.637 50.5822C182.015 53.4629 184.638 55.5034 187.536 55.1262C190.417 54.749 192.457 52.1255 192.08 49.2447C191.703 46.364 189.079 44.3234 186.181 44.7007C183.301 45.0608 181.26 47.7015 181.637 50.5822Z" fill="#FDB5AF"/>
<path d="M178.195 41.2544L178.675 45.0611C179.773 50.4281 182.036 48.7991 182.859 46.4843L178.195 41.2544Z" fill="#27160C"/>
<path d="M151.393 39.3165C151.393 39.3165 162.35 47.53 178.417 35.3555C189.494 26.9705 172.741 23.9526 172.741 23.9526L157.12 27.1763L151.393 39.3165Z" fill="black"/>
<path d="M183.355 76.9889C183.355 76.9889 173.976 93.7245 167.323 88.5804C160.138 83.0247 176.359 72.1191 176.359 72.1191L183.355 76.9889Z" fill="#FDB5AF"/>
<path d="M179.208 111.078C179.208 111.078 173.413 121.76 169.452 130.145L127.201 127.71C127.201 127.71 118.816 120.852 112.249 126.647L118.73 134.432L171.629 146.144C173.653 146.589 175.762 146.006 177.254 144.6C181.935 140.176 192.12 129.871 197.059 119.36L179.208 111.078Z" fill="#FDB5AF"/>
<path d="M61.9411 94.5991H113.863C115.577 94.5991 117.052 95.7994 117.395 97.4627L127.169 143.331C127.649 145.578 125.934 147.704 123.637 147.704H70.8405C69.1086 147.704 67.6168 146.469 67.291 144.772L58.3745 98.9031C57.963 96.6739 59.6777 94.5991 61.9411 94.5991Z" fill="#E8E8E8"/>
<path d="M58.9567 94.5991H110.878C112.593 94.5991 114.068 95.7994 114.411 97.4627L124.185 143.331C124.665 145.578 122.95 147.704 120.652 147.704H67.8561C66.1243 147.704 64.6325 146.469 64.3067 144.772L55.3901 98.9031C54.9786 96.6739 56.6762 94.5991 58.9567 94.5991Z" fill="#F8F8F8"/>
<path d="M125.798 143.794H161.276C162.356 143.794 163.23 144.669 163.23 145.749C163.23 146.83 162.356 147.704 161.276 147.704H125.112L125.798 143.794Z" fill="#E8E8E8"/>
<path d="M91.1094 119.96C91.1094 123.081 88.5716 125.618 85.4508 125.618C82.33 125.618 79.7922 123.081 79.7922 119.96C79.7922 116.839 82.33 114.301 85.4508 114.301C88.5716 114.301 91.1094 116.822 91.1094 119.96Z" fill="#F3F3F3"/>
<path d="M197.059 77.2293C197.762 77.538 221.031 88.9752 198.139 124.418C198.139 124.418 183.513 124.658 175.042 113.77C175.025 113.77 177.837 68.7929 197.059 77.2293Z" fill="#FA930A"/>
<path d="M146.832 269.26C146.524 268.334 145.512 267.991 144.826 268.591C143.489 269.774 141.088 271.232 137.556 270.872C133.869 270.512 132.497 268.334 131.966 266.774C131.691 265.951 130.903 265.539 130.2 265.882L107.874 277.096C106.519 277.782 105.456 279.051 104.942 280.629C104.445 282.12 105.439 283.715 106.845 283.681L145.409 282.618C146.935 282.583 148.084 281.092 147.964 279.36L147.33 270.855C147.312 270.718 147.295 270.58 147.244 270.443L146.832 269.26Z" fill="#FD6C75"/>
<path d="M90.5408 254.582C90.4722 253.605 89.5977 253.005 88.7918 253.416C87.1971 254.205 84.505 254.977 81.1784 253.708C77.7318 252.388 76.9602 249.935 76.8573 248.289C76.8059 247.432 76.1543 246.815 75.3827 246.969L50.8965 251.959C49.4047 252.268 48.0501 253.211 47.1241 254.599C46.2496 255.903 46.7983 257.703 48.153 258.029L85.6538 267.1C87.1285 267.46 88.6374 266.328 88.9632 264.613L90.5751 256.246C90.6094 256.108 90.6094 255.971 90.6094 255.817L90.5408 254.582Z" fill="#FD6C75"/>
</svg>
