<svg xmlns="http://www.w3.org/2000/svg">

  <symbol id="home" viewBox="0 0 23 23">
    <title>home</title>
    <path d="M21 13v10h-6v-6h-6v6h-6v-10h-3l12-12 12 12h-3zm-1-5.907v-5.093h-3v2.093l3 3z"/>
  </symbol>


	<symbol id="arrow" viewBox="0 0 15.798 9.899">
    <title>arrow</title>
    <path fill-rule="evenodd" clip-rule="evenodd" d="M15.798 0l-7.9 9.9L0 0h15.798z"/>
  </symbol>

  <symbol id="audio" viewBox="0 0 47 37.1">
    <title>audio</title>
    <path d="M0,11.1v16h9.1l11.9,10V0L8.3,11.1H0z M36.7,8.2l-0.3-0.4l-1.5,1.3l0.3,0.4c2.2,2.5,3.4,5.6,3.4,8.8
    c0,3.3-1.3,6.6-3.7,9.1l-0.3,0.4l1.5,1.4l0.3-0.4c2.7-2.9,4.2-6.6,4.2-10.5C40.6,14.6,39.3,11.1,36.7,8.2L36.7,8.2z"/>
    <path d="M41.7,4.6l-0.3-0.4l-1.5,1.3l0.3,0.4c3.1,3.6,4.8,7.9,4.8,12.5c0,4.7-1.8,9.3-5.2,12.9l-0.3,0.4l1.5,1.4
    l0.3-0.4c3.7-4,5.7-9,5.7-14.3C47,13.3,45.2,8.5,41.7,4.6z M30.4,12.2l-1.5,1.3l0.3,0.4c1.1,1.3,1.7,2.8,1.7,4.4
    c0,1.7-0.7,3.3-1.9,4.6l-0.3,0.4l1.5,1.4l0.3-0.4c1.5-1.7,2.4-3.8,2.4-6c0-2.1-0.8-4.1-2.2-5.8L30.4,12.2L30.4,12.2z"/>
  </symbol>

  <symbol id="back" viewBox="0 0 20.682 17">
    <title>back</title>
    <path d="M20.682 10.083H5.884l4.784 4.68L8.498 17 0 8.5 8.5 0l2.168 2.237-4.784 4.68h14.798v3.166z"/>
  </symbol>

  <symbol id="browser_arrow" viewBox="0 0 35 29">
    <title>browser_arrow</title>
    <path fill-rule="evenodd" clip-rule="evenodd" d="M16.4142 0.585786C17.1953 1.36683 17.1953 2.63317 16.4142 3.41421L7.32843 12.5H32.5C33.6046 12.5 34.5 13.3954 34.5 14.5C34.5 15.6046 33.6046 16.5 32.5 16.5H7.32843L16.4142 25.5858C17.1953 26.3668 17.1953 27.6332 16.4142 28.4142C15.6332 29.1953 14.3668 29.1953 13.5858 28.4142L1.08579 15.9142C0.304738 15.1332 0.304738 13.8668 1.08579 13.0858L13.5858 0.585786C14.3668 -0.195262 15.6332 -0.195262 16.4142 0.585786Z"/>
  </symbol>

  <symbol id="calendar" viewBox="0 0 17 20">
    <title>calendar</title>
    <path d="M15,2.8V1.7C15,0.6,14.3,0,13.2,0s-1.8,0.6-1.8,1.7v1.1h-1.2V1.7C10.3,0.6,9.6,0,8.5,0C7.4,0,6.7,0.6,6.7,1.7v1.1H5.6V1.7 C5.6,0.6,4.9,0,3.8,0C2.7,0,2,0.6,2,1.7v1.1H0V20h17V2.8L15,2.8L15,2.8z M12.4,1.7c0-0.5,0.2-0.7,0.8-0.7c0.6,0,0.8,0.2,0.8,0.7v2.9 c0,0.5-0.2,0.7-0.8,0.7s-0.8-0.2-0.8-0.7V1.7L12.4,1.7z M7.7,1.7C7.7,1.2,7.9,1,8.5,1c0.6,0,0.8,0.2,0.8,0.7v2.9 c0,0.5-0.2,0.7-0.8,0.7c-0.6,0-0.8-0.2-0.8-0.7L7.7,1.7L7.7,1.7z M3,1.7C3,1.2,3.2,1,3.8,1s0.8,0.2,0.8,0.7v2.9 c0,0.5-0.2,0.7-0.8,0.7S3,5.1,3,4.6L3,1.7L3,1.7z M14.6,17.6H2.4v-9h12.2L14.6,17.6z"/>
  </symbol>

  <symbol id="check" viewBox="0 0 33.627 31.411">
    <title>check</title>
    <path d="M32.253.718L32.25.716a3.505 3.505 0 0 0-4.904.66l-16 20.95L6.17 16.21a3.504 3.504 0 0 0-4.93-.413 3.505 3.505 0 0 0-.414 4.933l7.987 9.444c.666.787 1.637 1.24 2.753 1.24h.005a3.482 3.482 0 0 0 2.697-1.376L32.91 5.623a3.504 3.504 0 0 0-.657-4.905z"/>
  </symbol>

  <symbol id="clear" viewBox="0 0 8 8">
    <title>clear</title>
    <path d="M 4 8C 6.20911 8 8 6.20917 8 4C 8 1.79083 6.20911 0 4 0C 1.79089 0 0 1.79083 0 4C 0 6.20917 1.79089 8 4 8ZM 6.66675 4.16217C 6.66675 4.49847 6.50061 4.66663 6.20154 4.66663L 1.79846 4.66663C 1.49951 4.66663 1.33337 4.49847 1.33337 4.16217L 1.33337 3.82581C 1.33337 3.50146 1.49951 3.33331 1.79846 3.33331L 6.20154 3.33331C 6.50061 3.33331 6.66675 3.50146 6.66675 3.82581L 6.66675 4.16217Z"/>
  </symbol>

  <symbol id="close" viewBox="0 0 26.152 26.152">
    <title>close</title>
    <path d="M17.318 13.076l7.955-7.955a2.998 2.998 0 0 0 0-4.24 2.998 2.998 0 0 0-4.242 0l-7.954 7.954L5.12.88a2.998 2.998 0 0 0-4.24 0 2.998 2.998 0 0 0 0 4.24l7.954 7.956L.88 21.03A2.998 2.998 0 0 0 3 26.153a2.99 2.99 0 0 0 2.12-.88l7.956-7.954 7.955 7.955c.587.586 1.355.88 2.122.88s1.535-.294 2.12-.88a2.998 2.998 0 0 0 0-4.242l-7.954-7.954z"/>
  </symbol>

  <symbol id="diamond" viewBox="0 0 24 24" fill="none">
    <path d="M1 8.59576L12.0395 20.4475M1 8.59576L4.72153 3.55249M1 8.59576H8.29413M23 8.59576L12.0395 20.4475M23 8.59576L19.3098 3.55249H4.72153M23 8.59576H15.8235M12.0395 20.4475L15.8235 8.59576M12.0395 20.4475L8.29413 8.59576M4.72153 3.55249L8.29413 8.59576M15.8235 8.59576L19.3336 3.55249M15.8235 8.59576L12.0157 3.55249M15.8235 8.59576H8.29413M8.29413 8.59576L12.0395 3.55249" stroke-linecap="round" stroke-linejoin="round"/>
  </symbol>

  <symbol id="dictation-off" viewBox="0 0 23 23">
    <title>dictation-off</title>
    <path d="M19.9522 2.75602C19.4764 2.45235 18.9111 2.27637 18.3048 2.27637H4.91706C3.22339 2.27637 1.8504 3.64936 1.8504 5.34303V13.4745C1.8504 14.573 2.42797 15.5366 3.296 16.0782L4.66086 14.9865C3.93598 14.8646 3.38373 14.234 3.38373 13.4745V5.34303C3.38373 4.4962 4.07023 3.8097 4.91706 3.8097H18.3048C18.4056 3.8097 18.5041 3.81943 18.5995 3.838L19.9522 2.75602Z"/>
    <path d="M17.4221 10.6701L17.3275 10.7458C17.361 10.723 17.3927 10.6977 17.4221 10.6701Z"/>
    <path d="M11.9114 15.0777C12.0111 15.032 12.1201 15.0078 12.2312 15.0078H18.3048C19.1516 15.0078 19.8381 14.3213 19.8381 13.4745V8.73769L21.3714 7.51129V13.4745C21.3714 15.1682 19.9984 16.5412 18.3048 16.5412H12.4997L7.74734 20.3346C7.51713 20.5183 7.20199 20.554 6.93657 20.4262C6.67115 20.2985 6.50239 20.0299 6.50239 19.7354V19.404L11.9114 15.0777Z"/>
    <path d="M14.9689 6.74184C14.8575 6.456 14.5796 6.25345 14.2543 6.25345C13.8309 6.25345 13.4876 6.5967 13.4876 7.02012V7.9266L14.9689 6.74184Z"/>
    <path d="M12.3768 8.81507V8.06382C12.3768 7.64041 12.0336 7.29716 11.6101 7.29716C11.1867 7.29716 10.8435 7.64041 10.8435 8.06382V10.0415L12.3768 8.81507Z"/>
    <path d="M9.73333 10.9294V6.44512C9.73333 6.0217 9.39008 5.67845 8.96666 5.67845C8.54324 5.67845 8.19999 6.0217 8.19999 6.44512L8.19999 12.1558L9.73333 10.9294Z"/>
    <path d="M7.08917 8.89555C7.08917 8.47213 6.74592 8.12888 6.32251 8.12888C5.89909 8.12888 5.55584 8.47213 5.55584 8.89555V10.3109C5.55584 10.7343 5.89909 11.0776 6.32251 11.0776C6.74592 11.0776 7.08917 10.7343 7.08917 10.3109V8.89555Z"/>
    <path fill-rule="evenodd" clip-rule="evenodd" d="M22.7597 3.45504C23.0242 3.7857 22.9705 4.26815 22.6399 4.53262L2.97115 20.2642C2.64049 20.5287 2.15804 20.4751 1.89356 20.1444C1.62909 19.8137 1.68275 19.3313 2.01341 19.0668L21.6821 3.33519C22.0128 3.07072 22.4953 3.12437 22.7597 3.45504Z"/>
  </symbol>

  <symbol id="dictation-on" viewBox="0 0 23 23">
    <title>dictation-on</title>
    <path fill-rule="evenodd" clip-rule="evenodd" d="M1.84961 5.34303C1.84961 3.64936 3.2226 2.27637 4.91628 2.27637H18.304C19.9977 2.27637 21.3707 3.64936 21.3707 5.34303V13.4745C21.3707 15.1682 19.9977 16.5412 18.304 16.5412H12.4989L7.74655 20.3346C7.51634 20.5183 7.2012 20.554 6.93578 20.4262C6.67036 20.2985 6.5016 20.0299 6.5016 19.7354V16.5412H4.91627C3.2226 16.5412 1.84961 15.1682 1.84961 13.4745V5.34303ZM4.91628 3.8097C4.06944 3.8097 3.38294 4.4962 3.38294 5.34303V13.4745C3.38294 14.3213 4.06944 15.0078 4.91627 15.0078H7.26827C7.69169 15.0078 8.03494 15.3511 8.03494 15.7745V18.1425L11.7521 15.1753C11.8879 15.0669 12.0566 15.0078 12.2304 15.0078H18.304C19.1508 15.0078 19.8373 14.3213 19.8373 13.4745V5.34303C19.8373 4.4962 19.1508 3.8097 18.304 3.8097H4.91628Z"/>
    <path fill-rule="evenodd" clip-rule="evenodd" d="M6.32172 8.12888C6.74514 8.12888 7.08839 8.47213 7.08839 8.89555V10.3109C7.08839 10.7343 6.74514 11.0776 6.32172 11.0776C5.8983 11.0776 5.55505 10.7343 5.55505 10.3109V8.89555C5.55505 8.47213 5.8983 8.12888 6.32172 8.12888Z"/>
    <path fill-rule="evenodd" clip-rule="evenodd" d="M8.96587 5.67845C9.38929 5.67845 9.73254 6.0217 9.73254 6.44512L9.73254 12.842C9.73254 13.2654 9.38929 13.6087 8.96587 13.6087C8.54246 13.6087 8.19921 13.2654 8.19921 12.842L8.19921 6.44512C8.19921 6.0217 8.54246 5.67845 8.96587 5.67845Z"/>
    <path fill-rule="evenodd" clip-rule="evenodd" d="M11.6094 7.29716C12.0328 7.29716 12.376 7.64041 12.376 8.06382V11.1417C12.376 11.5651 12.0328 11.9084 11.6094 11.9084C11.1859 11.9084 10.8427 11.5651 10.8427 11.1417V8.06382C10.8427 7.64041 11.1859 7.29716 11.6094 7.29716Z"/>
    <path fill-rule="evenodd" clip-rule="evenodd" d="M14.2535 6.25345C14.6769 6.25345 15.0202 6.5967 15.0202 7.02012V12.1951C15.0202 12.6185 14.6769 12.9618 14.2535 12.9618C13.8301 12.9618 13.4868 12.6185 13.4868 12.1951V7.02012C13.4868 6.5967 13.8301 6.25345 14.2535 6.25345Z"/>
    <path fill-rule="evenodd" clip-rule="evenodd" d="M16.897 8.31387C17.3204 8.31387 17.6637 8.65712 17.6637 9.08053V10.1107C17.6637 10.5342 17.3204 10.8774 16.897 10.8774C16.4736 10.8774 16.1303 10.5342 16.1303 10.1107V9.08053C16.1303 8.65712 16.4736 8.31387 16.897 8.31387Z"/>
  </symbol>

  <symbol id="document" viewBox="0 0 20 22">
    <path fill-rule="evenodd" clip-rule="evenodd" d="M0 0H19.375V21.25H0V0ZM1.875 1.875V19.375H17.5V1.875H1.875Z"/>
    <path fill-rule="evenodd" clip-rule="evenodd" d="M14.6875 6.40625H4.6875V5.46875H14.6875V6.40625Z"/>
    <path fill-rule="evenodd" clip-rule="evenodd" d="M14.6875 9.53125H4.6875V8.59375H14.6875V9.53125Z"/>
    <path fill-rule="evenodd" clip-rule="evenodd" d="M14.6875 12.6562H4.6875V11.7187H14.6875V12.6562Z"/>
    <path fill-rule="evenodd" clip-rule="evenodd" d="M10.9375 15.7812H4.6875V14.8437H10.9375V15.7812Z"/>
  </symbol>

  <symbol id="info" viewBox="0 0 20 20">
    <title>info</title>
    <path d="M10 0C4.477 0 0 4.477 0 10s4.477 10 10 10 10-4.477 10-10S15.523 0 10 0zm1.283 3.097c.4-.002.717.153.92.394.206.242.3.56.3.885 0 .844-.67 1.643-1.607 1.645h-.024c-.734 0-1.19-.544-1.197-1.337.003-.68.552-1.58 1.608-1.586zm1.21 11.21c-1.398 1.527-3.123 2.44-3.78 2.447H8.71c-.222 0-.453-.06-.62-.24-.168-.183-.254-.46-.254-.858 0-.304.05-.96.164-1.435L9.003 9.9c.05-.242.075-.412.077-.5-.174.064-.937.622-1.313.915l-.133.1-.39-1.06.076-.072c1.412-1.306 3.11-2.352 3.887-2.362a.58.58 0 0 1 .52.294c.107.18.15.416.15.7 0 .307-.053.95-.15 1.37l-1.1 4.48a2.2 2.2 0 0 0-.074.47c0 .057.007.094.013.11.117-.013.9-.55 1.405-1.015l.12-.11.418.916.06.09-.074.08z"/>
  </symbol>

  <symbol id="intro" viewBox="0 0 43 34">
    <title>intro</title>
    <path fill-rule="evenodd" clip-rule="evenodd" d="M0 7C0 3.13401 3.13401 0 7 0H36C39.866 0 43 3.13401 43 7V22C43 25.866 39.866 29 36 29H20.2932L15.25 33.7465L10.2068 29H7C3.13401 29 0 25.866 0 22V7ZM7 4C5.34315 4 4 5.34315 4 7V22C4 23.6569 5.34315 25 7 25H11.7932L15.25 28.2535L18.7068 25H36C37.6569 25 39 23.6569 39 22V7C39 5.34315 37.6569 4 36 4H7ZM6.5 11C6.5 9.89543 7.39543 9 8.5 9H25C26.1046 9 27 9.89543 27 11C27 12.1046 26.1046 13 25 13H8.5C7.39543 13 6.5 12.1046 6.5 11ZM6.5 18C6.5 16.8954 7.39543 16 8.5 16H33.5C34.6046 16 35.5 16.8954 35.5 18C35.5 19.1046 34.6046 20 33.5 20H8.5C7.39543 20 6.5 19.1046 6.5 18Z"/>
  </symbol>

  <symbol id="keyboard" viewBox="0 0 23 14">
    <title>keyboard</title>
    <path d="M22.75,0.25 L22.75,13.75 L0.25,13.75 L0.25,0.25 L22.75,0.25 Z M1.75,1.75 L1.75,12.25 L21.25,12.25 L21.25,1.75 L1.75,1.75 Z M3,9 L5,9 L5,11 L3,11 L3,9 Z M6,9 L17,9 L17,11 L6,11 L6,9 Z M18,9 L20,9 L20,11 L18,11 L18,9 Z M3,6 L5,6 L5,8 L3,8 L3,6 Z M6,6 L8,6 L8,8 L6,8 L6,6 Z M9,6 L11,6 L11,8 L9,8 L9,6 Z M12,6 L14,6 L14,8 L12,8 L12,6 Z M15,6 L17,6 L17,8 L15,8 L15,6 Z M18,6 L20,6 L20,8 L18,8 L18,6 Z M18,3 L20,3 L20,5 L18,5 L18,3 Z M15,3 L17,3 L17,5 L15,5 L15,3 Z M12,3 L14,3 L14,5 L12,5 L12,3 Z M9,3 L11,3 L11,5 L9,5 L9,3 Z M6,3 L8,3 L8,5 L6,5 L6,3 Z M3,3 L5,3 L5,5 L3,5 L3,3 Z" />
  </symbol>

  <symbol id="keyBasic" viewBox="0 0 18 18">
    <title>key basic</title>
    <path fill-rule="evenodd" d="M 0.228361 1.85195C 0 2.40326 0 3.10218 0 4.5L 0 13.5C 0 14.8978 0 15.5967 0.228361 16.1481C 0.532844 16.8831 1.11687 17.4672 1.85195 17.7716C 2.40326 18 3.10218 18 4.5 18L 13.5 18C 14.8978 18 15.5967 18 16.1481 17.7716C 16.8831 17.4672 17.4672 16.8831 17.7716 16.1481C 18 15.5967 18 14.8978 18 13.5L 18 4.5C 18 3.10218 18 2.40326 17.7716 1.85195C 17.4672 1.11687 16.8831 0.532844 16.1481 0.228361C 15.5967 0 14.8978 0 13.5 0L 4.5 0C 3.10218 0 2.40326 0 1.85195 0.228361C 1.11687 0.532844 0.532844 1.11687 0.228361 1.85195ZM 2.51823 5.96395C 2.42308 6.19367 2.42308 6.48488 2.42308 7.06731L 2.42308 10.9327C 2.42308 11.5151 2.42308 11.8063 2.51823 12.036C 2.64509 12.3423 2.88844 12.5857 3.19472 12.7125C 3.42444 12.8077 3.71565 12.8077 4.29808 12.8077L 4.35577 12.8077C 4.93819 12.8077 5.22941 12.8077 5.45912 12.7125C 5.76541 12.5857 6.00875 12.3423 6.13562 12.036C 6.23077 11.8063 6.23077 11.5151 6.23077 10.9327L 6.23077 7.06731C 6.23077 6.48488 6.23077 6.19367 6.13562 5.96395C 6.00875 5.65767 5.76541 5.41432 5.45912 5.28746C 5.22941 5.19231 4.93819 5.19231 4.35577 5.19231L 4.29808 5.19231C 3.71565 5.19231 3.42444 5.19231 3.19472 5.28746C 2.88844 5.41432 2.64509 5.65767 2.51823 5.96395ZM 7.1913 5.96395C 7.09615 6.19367 7.09615 6.48488 7.09615 7.06731L 7.09615 10.9327C 7.09615 11.5151 7.09615 11.8063 7.1913 12.036C 7.31817 12.3423 7.56151 12.5857 7.8678 12.7125C 8.09751 12.8077 8.38873 12.8077 8.97115 12.8077L 9.02884 12.8077C 9.61127 12.8077 9.90248 12.8077 10.1322 12.7125C 10.4385 12.5857 10.6818 12.3423 10.8087 12.036C 10.9038 11.8063 10.9038 11.5151 10.9038 10.9327L 10.9038 7.06731C 10.9038 6.48488 10.9038 6.19367 10.8087 5.96395C 10.6818 5.65767 10.4385 5.41432 10.1322 5.28746C 9.90248 5.19231 9.61127 5.19231 9.02884 5.19231L 8.97115 5.19231C 8.38873 5.19231 8.09751 5.19231 7.8678 5.28746C 7.56151 5.41432 7.31817 5.65767 7.1913 5.96395ZM 15.4818 5.96395C 15.5769 6.19367 15.5769 6.48488 15.5769 7.06731L 15.5769 10.9327C 15.5769 11.5151 15.5769 11.8063 15.4818 12.036C 15.3549 12.3423 15.1116 12.5857 14.8053 12.7125C 14.5756 12.8077 14.2843 12.8077 13.7019 12.8077L 13.6442 12.8077C 13.0618 12.8077 12.7706 12.8077 12.5409 12.7125C 12.2346 12.5857 11.9912 12.3423 11.8644 12.036C 11.7692 11.8063 11.7692 11.5151 11.7692 10.9327L 11.7692 7.06731C 11.7692 6.48488 11.7692 6.19367 11.8644 5.96395C 11.9912 5.65767 12.2346 5.41432 12.5409 5.28746C 12.7706 5.19231 13.0618 5.19231 13.6442 5.19231L 13.7019 5.19231C 14.2843 5.19231 14.5756 5.19231 14.8053 5.28746C 15.1116 5.41432 15.3549 5.65767 15.4818 5.96395Z"/>
  </symbol>

  <symbol id="keyFalling" viewBox="0 0 18 18">
    <title>key falling</title>
    <path fill-rule="evenodd" d="M 0.228361 1.85195C 0 2.40326 0 3.10218 0 4.5L 0 13.5C 0 14.8978 0 15.5967 0.228361 16.1481C 0.532844 16.8831 1.11687 17.4672 1.85195 17.7716C 2.40326 18 3.10218 18 4.5 18L 13.5 18C 14.8978 18 15.5967 18 16.1481 17.7716C 16.8831 17.4672 17.4672 16.8831 17.7716 16.1481C 18 15.5967 18 14.8978 18 13.5L 18 4.5C 18 3.10218 18 2.40326 17.7716 1.85195C 17.4672 1.11687 16.8831 0.532844 16.1481 0.228361C 15.5967 0 14.8978 0 13.5 0L 4.5 0C 3.10218 0 2.40326 0 1.85195 0.228361C 1.11687 0.532844 0.532844 1.11687 0.228361 1.85195ZM 2.51823 12.5409C 2.42308 12.7706 2.42308 13.0618 2.42308 13.6442L 2.42308 13.7019C 2.42308 14.2843 2.42308 14.5756 2.51823 14.8053C 2.64509 15.1116 2.88844 15.3549 3.19472 15.4818C 3.42444 15.5769 3.71565 15.5769 4.29808 15.5769L 4.35577 15.5769C 4.9382 15.5769 5.22941 15.5769 5.45912 15.4818C 5.76541 15.3549 6.00875 15.1116 6.13562 14.8053C 6.23077 14.5756 6.23077 14.2843 6.23077 13.7019L 6.23077 13.6442C 6.23077 13.0618 6.23077 12.7706 6.13562 12.5409C 6.00875 12.2346 5.76541 11.9912 5.45912 11.8644C 5.22941 11.7692 4.9382 11.7692 4.35577 11.7692L 4.29808 11.7692C 3.71565 11.7692 3.42444 11.7692 3.19472 11.8644C 2.88844 11.9912 2.64509 12.2346 2.51823 12.5409ZM 11.7692 8.97115C 11.7692 8.38873 11.7692 8.09751 11.8644 7.8678C 11.9912 7.56151 12.2346 7.31817 12.5409 7.1913C 12.7706 7.09615 13.0618 7.09615 13.6442 7.09615L 13.7019 7.09615C 14.2843 7.09615 14.5756 7.09615 14.8053 7.1913C 15.1116 7.31817 15.3549 7.56151 15.4818 7.8678C 15.5769 8.09751 15.5769 8.38873 15.5769 8.97115L 15.5769 9.02884C 15.5769 9.61127 15.5769 9.90249 15.4818 10.1322C 15.3549 10.4385 15.1116 10.6818 14.8053 10.8087C 14.5756 10.9038 14.2843 10.9038 13.7019 10.9038L 13.6442 10.9038C 13.0618 10.9038 12.7706 10.9038 12.5409 10.8087C 12.2346 10.6818 11.9912 10.4385 11.8644 10.1322C 11.7692 9.90249 11.7692 9.61127 11.7692 9.02884L 11.7692 8.97115ZM 7.01823 3.19472C 6.92308 3.42444 6.92308 3.71565 6.92308 4.29808L 6.92308 4.35577C 6.92308 4.9382 6.92308 5.22941 7.01823 5.45912C 7.14509 5.76541 7.38844 6.00875 7.69472 6.13562C 7.92444 6.23077 8.21565 6.23077 8.79808 6.23077L 8.85577 6.23077C 9.4382 6.23077 9.72941 6.23077 9.95912 6.13562C 10.2654 6.00875 10.5088 5.76541 10.6356 5.45912C 10.7308 5.22941 10.7308 4.9382 10.7308 4.35577L 10.7308 4.29808C 10.7308 3.71565 10.7308 3.42444 10.6356 3.19472C 10.5088 2.88844 10.2654 2.64509 9.95912 2.51823C 9.72941 2.42308 9.4382 2.42308 8.85577 2.42308L 8.79808 2.42308C 8.21565 2.42308 7.92444 2.42308 7.69472 2.51823C 7.38844 2.64509 7.14509 2.88844 7.01823 3.19472Z"/>
  </symbol>

  <symbol id="keyNew" viewBox="0 0 18 18">
    <title>key new</title>
    <path fill-rule="evenodd" d="M 0.228361 1.85195C 0 2.40326 0 3.10218 0 4.5L 0 13.5C 0 14.8978 0 15.5967 0.228361 16.1481C 0.532844 16.8831 1.11687 17.4672 1.85195 17.7716C 2.40326 18 3.10218 18 4.5 18L 13.5 18C 14.8978 18 15.5967 18 16.1481 17.7716C 16.8831 17.4672 17.4672 16.8831 17.7716 16.1481C 18 15.5967 18 14.8978 18 13.5L 18 4.5C 18 3.10218 18 2.40326 17.7716 1.85195C 17.4672 1.11687 16.8831 0.532844 16.1481 0.228361C 15.5967 0 14.8978 0 13.5 0L 4.5 0C 3.10218 0 2.40326 0 1.85195 0.228361C 1.11687 0.532844 0.532844 1.11687 0.228361 1.85195ZM 9.21901 2.47479C 9.12401 2.3022 8.87599 2.3022 8.78099 2.47479L 7.30759 5.15146C 7.25621 5.2448 7.15131 5.29532 7.04629 5.27729L 4.03494 4.76037C 3.84077 4.72704 3.68613 4.92094 3.76184 5.10283L 4.93589 7.92365C 4.97683 8.02202 4.95092 8.13554 4.87135 8.20641L 2.58966 10.2385C 2.44254 10.3695 2.49772 10.6113 2.68713 10.6655L 5.62454 11.5064C 5.72698 11.5357 5.79958 11.6267 5.80537 11.7331L 5.9715 14.784C 5.98221 14.9807 6.20566 15.0883 6.36614 14.974L 8.85499 13.2017C 8.94178 13.1399 9.05822 13.1399 9.14502 13.2017L 11.6339 14.974C 11.7943 15.0883 12.0178 14.9807 12.0285 14.784L 12.1946 11.7331C 12.2004 11.6267 12.273 11.5357 12.3755 11.5064L 15.3129 10.6655C 15.5023 10.6113 15.5575 10.3695 15.4103 10.2385L 13.1287 8.20641C 13.0491 8.13554 13.0232 8.02202 13.0641 7.92365L 14.2382 5.10283C 14.3139 4.92094 14.1592 4.72704 13.9651 4.76037L 10.9537 5.27729C 10.8487 5.29532 10.7438 5.2448 10.6924 5.15146L 9.21901 2.47479Z"/>
  </symbol>

  <symbol id="lock" viewBox="0 0 26.012 34.672">
    <title>Lock</title>
    <!-- Contents of icons/lock.svg -->
    <path d="M22.58 15.137v-5.69A9.445 9.445 0 0 0 13.135.002c-.065 0-.112-.004-.176-.002l-.173.003c-5.217 0-9.444 4.23-9.444 9.445v5.69H0V34.67h26.012V15.137H22.58zM15.96 31.09h-5.9l1.445-6.315a2.945 2.945 0 0 1-1.445-2.534 2.95 2.95 0 1 1 4.444 2.542l1.455 6.308zm1.895-15.953H8.068v-5.69a4.724 4.724 0 0 1 4.72-4.717c.073 0 .23-.004.23-.004s.078.003.118.003a4.724 4.724 0 0 1 4.72 4.717v5.69z"/>
  </symbol>

  <symbol id="mute" viewBox="0 0 21 37.1">
    <title>mute</title>
    <path d="M0,11.1v16h9.1l11.9,10V0L8.3,11.1H0z"/>
  </symbol>

  <symbol id="pause" viewBox="0 0 24 24">
    <title>pause</title>
    <g clip-path="url(#clip0)" >
      <path d="M5 1h5v22H5V1zM14 1h5v22h-5V1z"/>
    </g>
    <defs>
      <clipPath id="clip0">
        <path d="M0 0h24v24H0z"/>
      </clipPath>
    </defs>
  </symbol>

  <symbol id="play" viewBox="0 0 24 24">
    <title>play</title>
    <path d="M3 22v-20l18 10-18 10z"/>
  </symbol>

  <symbol id="premium" viewBox="0 0 26 20" >
    <title>Premium</title>
    <!-- Contents of icons/premium.svg -->
    <path fill-rule="evenodd" clip-rule="evenodd" d="M21.2635 1.07916C21.1916 0.92253 21.0781 0.782463 20.9264 0.67687C20.7475 0.552398 20.5423 0.494425 20.3398 0.497689C20.3368 0.497661 20.3337 0.497647 20.3306 0.497647H12.8658C12.8584 0.497564 12.8509 0.497564 12.8434 0.497647H12.8392C12.8321 0.497572 12.825 0.497572 12.8179 0.497647H5.32799C5.01049 0.497647 4.71186 0.648416 4.52335 0.903886L0.696097 6.09043C0.410324 6.4777 0.440959 7.0136 0.769002 7.36578L12.1221 19.5542C12.3117 19.7577 12.5775 19.8731 12.8556 19.8726C13.1338 19.8721 13.3991 19.7558 13.588 19.5516L24.8599 7.36315C25.1847 7.01191 25.2153 6.47978 24.9327 6.09368L21.2635 1.07916ZM10.8656 2.49765H7.26186L9.02119 4.98121L10.8656 2.49765ZM7.06821 5.68419L5.31144 3.20425L3.48145 5.68419H7.06821ZM3.79881 7.68419L10.5649 14.9481L8.26935 7.68419H3.79881ZM10.3668 7.68419L12.8587 15.5695L15.3764 7.68419H10.3668ZM17.4758 7.68419L15.1753 14.8896L21.8388 7.68419H17.4758ZM22.1549 5.68419L20.3636 3.23609L18.6597 5.68419H22.1549ZM16.7124 4.98099L18.4408 2.49765H14.8374L16.7124 4.98099ZM12.8483 3.18234L10.9903 5.68419H14.7373L12.8483 3.18234Z"/>
  </symbol>

  <symbol id="redo" viewBox="0 0 45.722 39.833">
    <title>redo</title>
    <path fill-rule="evenodd" clip-rule="evenodd" d="M24.076 9.23v11.39l7.31 7.3 2.406-2.405-6.31-6.303V9.23h-3.406zM25.843 0C15.03 0 6.24 8.65 5.976 19.42H0l8.946 9.957 8.945-9.958h-6.943c.262-8.02 6.83-14.44 14.896-14.44 8.235 0 14.91 6.687 14.91 14.937s-6.676 14.938-14.91 14.938a14.814 14.814 0 0 1-8.822-2.898l-3.418 3.653a19.77 19.77 0 0 0 12.24 4.224c10.98 0 19.88-8.916 19.88-19.917S36.822 0 25.842 0z"/>
  </symbol>

  <symbol id="screen-block" viewBox="0 0 18 18">
    <title>screen-block</title>
    <path fill-rule="evenodd" clip-rule="evenodd" d="M0.228361 1.85195C0 2.40326 0 3.10218 0 4.5V13.5C0 14.8978 0 15.5967 0.228361 16.1481C0.532843 16.8831 1.11687 17.4672 1.85195 17.7716C2.40326 18 3.10218 18 4.5 18H13.5C14.8978 18 15.5967 18 16.1481 17.7716C16.8831 17.4672 17.4672 16.8831 17.7716 16.1481C18 15.5967 18 14.8978 18 13.5V4.5C18 3.10218 18 2.40326 17.7716 1.85195C17.4672 1.11687 16.8831 0.532843 16.1481 0.228361C15.5967 0 14.8978 0 13.5 0H4.5C3.10218 0 2.40326 0 1.85195 0.228361C1.11687 0.532843 0.532843 1.11687 0.228361 1.85195ZM9.21901 2.47479C9.12401 2.3022 8.87599 2.3022 8.78099 2.47479L7.30759 5.15146C7.25621 5.2448 7.15131 5.29532 7.04629 5.2773L4.03494 4.76037C3.84077 4.72704 3.68613 4.92094 3.76184 5.10283L4.93589 7.92365C4.97683 8.02202 4.95092 8.13554 4.87135 8.20641L2.58966 10.2385C2.44254 10.3695 2.49772 10.6113 2.68713 10.6655L5.62454 11.5064C5.72698 11.5357 5.79958 11.6267 5.80537 11.7331L5.9715 14.784C5.98221 14.9807 6.20566 15.0883 6.36614 14.974L8.85499 13.2017C8.94178 13.1399 9.05822 13.1399 9.14501 13.2017L11.6339 14.974C11.7943 15.0883 12.0178 14.9807 12.0285 14.784L12.1946 11.7331C12.2004 11.6267 12.273 11.5357 12.3755 11.5064L15.3129 10.6655C15.5023 10.6113 15.5575 10.3695 15.4103 10.2385L13.1286 8.20641C13.0491 8.13554 13.0232 8.02202 13.0641 7.92365L14.2382 5.10283C14.3139 4.92094 14.1592 4.72704 13.9651 4.76037L10.9537 5.2773C10.8487 5.29532 10.7438 5.2448 10.6924 5.15146L9.21901 2.47479Z"/>
    <path d="M7.02178 10.6958C6.95606 10.8796 7.0415 11 7.24523 11H7.54755C7.70529 11 7.81044 10.9303 7.85644 10.7782L8.17848 9.84648H9.81495L10.1436 10.7845C10.1896 10.9303 10.2947 11 10.4524 11H10.7548C10.9585 11 11.0439 10.8796 10.9782 10.6958L9.5192 6.71549C9.4732 6.56972 9.36804 6.5 9.21031 6.5H8.78969C8.63196 6.5 8.53338 6.56972 8.4808 6.71549L7.02178 10.6958ZM8.38879 9.18099L8.80941 7.97676C8.88827 7.72324 8.99343 7.27958 8.99343 7.27958H9.00657C9.00657 7.27958 9.11173 7.72324 9.19059 7.97676L9.60464 9.18099H8.38879Z"/>
  </symbol>

  <symbol id="screen-falling" viewBox="0 0 18 18">
    <title>screen-falling</title>
    <path fill-rule="evenodd" clip-rule="evenodd" d="M0.228361 1.85195C0 2.40326 0 3.10218 0 4.5V13.5C0 14.8978 0 15.5967 0.228361 16.1481C0.532844 16.8831 1.11687 17.4672 1.85195 17.7716C2.40326 18 3.10218 18 4.5 18H13.5C14.8978 18 15.5967 18 16.1481 17.7716C16.8831 17.4672 17.4672 16.8831 17.7716 16.1481C18 15.5967 18 14.8978 18 13.5V4.5C18 3.10218 18 2.40326 17.7716 1.85195C17.4672 1.11687 16.8831 0.532844 16.1481 0.228361C15.5967 0 14.8978 0 13.5 0H4.5C3.10218 0 2.40326 0 1.85195 0.228361C1.11687 0.532844 0.532844 1.11687 0.228361 1.85195ZM2.51823 12.5409C2.42308 12.7706 2.42308 13.0618 2.42308 13.6442V13.7019C2.42308 14.2843 2.42308 14.5756 2.51823 14.8053C2.64509 15.1116 2.88844 15.3549 3.19472 15.4818C3.42444 15.5769 3.71565 15.5769 4.29808 15.5769H4.35577C4.9382 15.5769 5.22941 15.5769 5.45912 15.4818C5.76541 15.3549 6.00875 15.1116 6.13562 14.8053C6.23077 14.5756 6.23077 14.2843 6.23077 13.7019V13.6442C6.23077 13.0618 6.23077 12.7706 6.13562 12.5409C6.00875 12.2346 5.76541 11.9912 5.45912 11.8644C5.22941 11.7692 4.9382 11.7692 4.35577 11.7692H4.29808C3.71565 11.7692 3.42444 11.7692 3.19472 11.8644C2.88844 11.9912 2.64509 12.2346 2.51823 12.5409ZM11.7692 8.97115C11.7692 8.38873 11.7692 8.09751 11.8644 7.8678C11.9912 7.56151 12.2346 7.31817 12.5409 7.1913C12.7706 7.09615 13.0618 7.09615 13.6442 7.09615H13.7019C14.2843 7.09615 14.5756 7.09615 14.8053 7.1913C15.1116 7.31817 15.3549 7.56151 15.4818 7.8678C15.5769 8.09751 15.5769 8.38873 15.5769 8.97115V9.02884C15.5769 9.61127 15.5769 9.90249 15.4818 10.1322C15.3549 10.4385 15.1116 10.6818 14.8053 10.8087C14.5756 10.9038 14.2843 10.9038 13.7019 10.9038H13.6442C13.0618 10.9038 12.7706 10.9038 12.5409 10.8087C12.2346 10.6818 11.9912 10.4385 11.8644 10.1322C11.7692 9.90249 11.7692 9.61127 11.7692 9.02884V8.97115ZM7.01823 3.19472C6.92308 3.42444 6.92308 3.71565 6.92308 4.29808V4.35577C6.92308 4.9382 6.92308 5.22941 7.01823 5.45912C7.14509 5.76541 7.38844 6.00875 7.69472 6.13562C7.92444 6.23077 8.21565 6.23077 8.79808 6.23077H8.85577C9.4382 6.23077 9.72941 6.23077 9.95912 6.13562C10.2654 6.00875 10.5088 5.76541 10.6356 5.45912C10.7308 5.22941 10.7308 4.9382 10.7308 4.35577V4.29808C10.7308 3.71565 10.7308 3.42444 10.6356 3.19472C10.5088 2.88844 10.2654 2.64509 9.95912 2.51823C9.72941 2.42308 9.4382 2.42308 8.85577 2.42308H8.79808C8.21565 2.42308 7.92444 2.42308 7.69472 2.51823C7.38844 2.64509 7.14509 2.88844 7.01823 3.19472Z"/>
  </symbol>

  <symbol id="screen-keyboard-jump" viewBox="0 0 18 18">
    <title>screen-keyboard</title>
    <path fill-rule="evenodd" clip-rule="evenodd" d="M0.228361 1.85195C0 2.40326 0 3.10218 0 4.5V13.5C0 14.8978 0 15.5967 0.228361 16.1481C0.532843 16.8831 1.11687 17.4672 1.85195 17.7716C2.40326 18 3.10218 18 4.5 18H13.5C14.8978 18 15.5967 18 16.1481 17.7716C16.8831 17.4672 17.4672 16.8831 17.7716 16.1481C18 15.5967 18 14.8978 18 13.5V4.5C18 3.10218 18 2.40326 17.7716 1.85195C17.4672 1.11687 16.8831 0.532843 16.1481 0.228361C15.5967 0 14.8978 0 13.5 0H4.5C3.10218 0 2.40326 0 1.85195 0.228361C1.11687 0.532843 0.532843 1.11687 0.228361 1.85195ZM8.89599 10.3877C8.4044 10.3826 7.92963 10.3776 7.60564 10.7016C7.5476 10.7596 7.44823 10.8643 7.31934 11L7.31928 11.0001L7.31925 11.0001L7.31924 11.0001L7.31922 11.0001C6.63814 11.7174 5.13327 13.3022 4.5492 13.4628L4.54078 13.4651C3.84367 13.6569 2.5 14.0264 2.5 11.6915C2.5 9.51282 3.78972 7.52915 4.41809 6.56267L4.4181 6.56266L4.41811 6.56264C4.46592 6.4891 4.50991 6.42145 4.5492 6.36006C5.10492 5.49175 5.71273 5.26599 6.71996 5.26599H9.08175H11.4435C12.4508 5.26599 13.0586 5.49175 13.6143 6.36006C13.6574 6.42737 13.7062 6.5022 13.7596 6.58407C14.3952 7.55822 15.6809 9.52878 15.6809 11.6915C15.6809 14.0264 14.3198 13.6569 13.6227 13.4651L13.6143 13.4628C13.0302 13.3022 11.5253 11.7173 10.8443 11.0001L10.8442 11.0001L10.844 10.9998C10.7152 10.8642 10.6159 10.7596 10.5579 10.7016C10.2339 10.3776 9.75911 10.3826 9.26752 10.3877C9.20578 10.3883 9.14376 10.389 9.08175 10.389C9.01974 10.389 8.95773 10.3883 8.89599 10.3877ZM12.034 7.54096C12.3217 7.54096 12.555 7.3077 12.555 7.01997C12.555 6.73224 12.3217 6.49899 12.034 6.49899C11.7463 6.49899 11.513 6.73224 11.513 7.01997C11.513 7.3077 11.7463 7.54096 12.034 7.54096ZM12.034 9.69436C12.3217 9.69436 12.555 9.4611 12.555 9.17337C12.555 8.88564 12.3217 8.65239 12.034 8.65239C11.7463 8.65239 11.513 8.88564 11.513 9.17337C11.513 9.4611 11.7463 9.69436 12.034 9.69436ZM10.9573 7.57569C11.245 7.57569 11.4783 7.80894 11.4783 8.09667C11.4783 8.3844 11.245 8.61766 10.9573 8.61766C10.6696 8.61766 10.4363 8.3844 10.4363 8.09667C10.4363 7.80894 10.6696 7.57569 10.9573 7.57569ZM13.6317 8.09667C13.6317 7.80894 13.3984 7.57569 13.1107 7.57569C12.823 7.57569 12.5897 7.80894 12.5897 8.09667C12.5897 8.3844 12.823 8.61766 13.1107 8.61766C13.3984 8.61766 13.6317 8.3844 13.6317 8.09667ZM7.65773 8.23559C7.65773 9.00288 7.03573 9.62488 6.26844 9.62488C5.50116 9.62488 4.87916 9.00288 4.87916 8.23559C4.87916 7.46831 5.50116 6.8463 6.26844 6.8463C7.03573 6.8463 7.65773 7.46831 7.65773 8.23559Z"/>
  </symbol>

  <symbol id="screen-standard" viewBox="0 0 18 18">
    <title>screen-standard</title>
    <path fill-rule="evenodd" clip-rule="evenodd" d="M0.228361 1.85195C0 2.40326 0 3.10218 0 4.5V13.5C0 14.8978 0 15.5967 0.228361 16.1481C0.532844 16.8831 1.11687 17.4672 1.85195 17.7716C2.40326 18 3.10218 18 4.5 18H13.5C14.8978 18 15.5967 18 16.1481 17.7716C16.8831 17.4672 17.4672 16.8831 17.7716 16.1481C18 15.5967 18 14.8978 18 13.5V4.5C18 3.10218 18 2.40326 17.7716 1.85195C17.4672 1.11687 16.8831 0.532844 16.1481 0.228361C15.5967 0 14.8978 0 13.5 0H4.5C3.10218 0 2.40326 0 1.85195 0.228361C1.11687 0.532844 0.532844 1.11687 0.228361 1.85195ZM2.51823 5.96395C2.42308 6.19367 2.42308 6.48488 2.42308 7.06731V10.9327C2.42308 11.5151 2.42308 11.8063 2.51823 12.036C2.64509 12.3423 2.88844 12.5857 3.19472 12.7125C3.42444 12.8077 3.71565 12.8077 4.29808 12.8077H4.35577C4.93819 12.8077 5.22941 12.8077 5.45912 12.7125C5.76541 12.5857 6.00875 12.3423 6.13562 12.036C6.23077 11.8063 6.23077 11.5151 6.23077 10.9327V7.06731C6.23077 6.48488 6.23077 6.19367 6.13562 5.96395C6.00875 5.65767 5.76541 5.41432 5.45912 5.28746C5.22941 5.19231 4.93819 5.19231 4.35577 5.19231H4.29808C3.71565 5.19231 3.42444 5.19231 3.19472 5.28746C2.88844 5.41432 2.64509 5.65767 2.51823 5.96395ZM7.1913 5.96395C7.09615 6.19367 7.09615 6.48488 7.09615 7.06731V10.9327C7.09615 11.5151 7.09615 11.8063 7.1913 12.036C7.31817 12.3423 7.56151 12.5857 7.8678 12.7125C8.09751 12.8077 8.38873 12.8077 8.97115 12.8077H9.02884C9.61127 12.8077 9.90248 12.8077 10.1322 12.7125C10.4385 12.5857 10.6818 12.3423 10.8087 12.036C10.9038 11.8063 10.9038 11.5151 10.9038 10.9327V7.06731C10.9038 6.48488 10.9038 6.19367 10.8087 5.96395C10.6818 5.65767 10.4385 5.41432 10.1322 5.28746C9.90248 5.19231 9.61127 5.19231 9.02884 5.19231H8.97115C8.38873 5.19231 8.09751 5.19231 7.8678 5.28746C7.56151 5.41432 7.31817 5.65767 7.1913 5.96395ZM15.4818 5.96395C15.5769 6.19367 15.5769 6.48488 15.5769 7.06731V10.9327C15.5769 11.5151 15.5769 11.8063 15.4818 12.036C15.3549 12.3423 15.1116 12.5857 14.8053 12.7125C14.5756 12.8077 14.2843 12.8077 13.7019 12.8077H13.6442C13.0618 12.8077 12.7706 12.8077 12.5409 12.7125C12.2346 12.5857 11.9912 12.3423 11.8644 12.036C11.7692 11.8063 11.7692 11.5151 11.7692 10.9327V7.06731C11.7692 6.48488 11.7692 6.19367 11.8644 5.96395C11.9912 5.65767 12.2346 5.41432 12.5409 5.28746C12.7706 5.19231 13.0618 5.19231 13.6442 5.19231H13.7019C14.2843 5.19231 14.5756 5.19231 14.8053 5.28746C15.1116 5.41432 15.3549 5.65767 15.4818 5.96395Z"/>
  </symbol>

  <symbol id="star" viewBox="0 0 37.996 36.001">
    <title>star</title>
    <path d="M18.998 0l5.87 11.85L38 13.75l-9.5 9.226L30.74 36l-11.742-6.15L7.258 36l2.24-13.024L0 13.75l13.128-1.9L18.998 0z"/>
  </symbol>

  <symbol id="settings" viewBox="0 0 71.951 71.952">
    <title>settings</title>
    <path d="M70.057 29.518l-10.746-1.98c-1.042-.19-1.41-1.065-.817-1.944l6.165-9.14c.593-.88.464-2.21-.285-2.96L58.46 7.582c-.75-.75-2.082-.878-2.96-.285l-9.14 6.165c-.88.593-1.756.224-1.947-.817l-1.98-10.75C42.242.853 41.218 0 40.158 0h-8.364c-1.06 0-2.084.853-2.275 1.895l-1.98 10.75c-.19 1.04-1.067 1.41-1.946.816l-9.138-6.163c-.878-.593-2.21-.465-2.96.285L7.58 13.495c-.75.75-.878 2.083-.285 2.96l6.164 9.14c.59.878.224 1.753-.82 1.944L1.896 29.517C.852 29.71 0 30.735 0 31.795v8.362c0 1.06.852 2.084 1.895 2.276l10.75 1.98c1.04.19 1.41 1.067.816 1.945l-6.165 9.14c-.593.88-.465 2.21.285 2.96l5.914 5.914c.75.75 2.082.88 2.96.285l9.138-6.162c.88-.595 1.755-.225 1.947.815l1.978 10.747c.19 1.042 1.216 1.895 2.275 1.895h8.364c1.06 0 2.084-.853 2.276-1.895l1.98-10.748c.19-1.042 1.066-1.41 1.945-.816l9.14 6.163c.88.594 2.21.465 2.96-.285l5.913-5.91c.75-.752.88-2.083.286-2.962l-6.166-9.142c-.593-.878-.225-1.754.816-1.946l10.75-1.98c1.043-.19 1.895-1.216 1.895-2.275v-8.362c0-1.06-.85-2.084-1.893-2.277zM35.97 49.006c-7.18 0-13-5.82-13-13s5.82-13 13-13 13 5.82 13 13-5.82 13-13 13z"/>
  </symbol>

  <symbol id="video" width="29" height="22" viewBox="0 0 29 22">
    <path fill-rule="evenodd" clip-rule="evenodd" d="M0.5625 0.6875H28.0625V18.1875H0.5625V0.6875ZM2.4375 2.5625V16.3125H26.1875V2.5625H2.4375Z"/>
    <path fill-rule="evenodd" clip-rule="evenodd" d="M21.5 21.9375H7.12501V20.0625H21.5V21.9375Z"/>
    <path fill-rule="evenodd" clip-rule="evenodd" d="M10.4062 5.59756L19.2381 9.4375L10.4062 13.2774V5.59756ZM11.3437 7.02745V11.8476L16.8869 9.4375L11.3437 7.02745Z"/>
  </symbol>

</svg>
